<?xml version="1.0" standalone="no"?>
<!DOCTYPE svg PUBLIC "-//W3C//DTD SVG 20010904//EN"
 "http://www.w3.org/TR/2001/REC-SVG-20010904/DTD/svg10.dtd">
<svg version="1.0" xmlns="http://www.w3.org/2000/svg"
 width="496.000000pt" height="496.000000pt" viewBox="0 0 496.000000 496.000000"
 preserveAspectRatio="xMidYMid meet">
<metadata>
Created by potrace 1.11, written by Peter Selinger 2001-2013
</metadata>
<g transform="translate(0.000000,496.000000) scale(0.100000,-0.100000)"
fill="#000000" stroke="none">
<path d="M1574 3304 c-74 -75 -96 -186 -48 -244 39 -45 72 -39 101 20 17 34
24 72 29 153 l7 107 -26 0 c-17 0 -39 -13 -63 -36z"/>
<path d="M1140 3155 c0 -90 28 -179 65 -212 31 -27 86 -30 106 -7 33 40 -2
152 -71 224 -36 38 -78 70 -92 70 -5 0 -8 -34 -8 -75z"/>
<path d="M1967 3139 c-80 -19 -125 -57 -147 -125 -18 -52 -6 -84 29 -84 24 0
44 15 98 71 39 41 86 79 111 90 50 22 53 33 11 48 -36 13 -49 13 -102 0z"/>
<path d="M4130 3125 c-58 -8 -145 -14 -193 -13 -77 2 -90 -1 -109 -19 -20 -21
-20 -23 -4 -47 24 -37 53 -53 120 -65 33 -6 61 -13 64 -15 9 -10 -91 -346
-133 -446 -45 -105 -48 -128 -18 -147 31 -20 158 -19 208 2 39 16 49 41 65
170 29 229 66 392 96 422 28 27 86 31 140 8 37 -15 59 -10 82 17 17 21 -27
110 -64 127 -42 20 -135 22 -254 6z"/>
<path d="M3545 3100 c-22 -5 -80 -11 -129 -14 -73 -5 -94 -10 -113 -28 -30
-28 -29 -42 2 -65 25 -18 26 -19 10 -62 -41 -116 9 -216 139 -279 36 -18 70
-32 74 -32 5 0 21 -11 36 -25 23 -21 25 -28 16 -45 -21 -39 -70 -60 -140 -60
-83 0 -123 23 -150 84 -21 50 -51 73 -68 53 -6 -7 -14 -35 -17 -63 -13 -93 48
-189 141 -223 136 -51 313 4 386 119 94 148 36 266 -173 345 -37 14 -70 33
-73 42 -11 27 18 67 64 91 53 26 89 28 152 5 41 -14 51 -15 73 -3 30 16 31 25
6 82 -29 67 -52 82 -129 85 -37 1 -85 -2 -107 -7z"/>
<path d="M2995 3055 c-5 -3 -69 -9 -142 -13 -107 -7 -136 -12 -153 -27 -28
-25 -25 -51 10 -77 17 -12 30 -29 30 -38 0 -42 -114 -412 -145 -469 -17 -33
-35 -89 -35 -111 0 -27 52 -44 108 -36 26 4 127 11 224 15 229 11 256 24 274
139 6 38 4 42 -21 54 -23 10 -32 9 -56 -5 -47 -27 -148 -41 -198 -27 l-42 11
7 57 c3 31 8 60 10 63 2 3 32 12 66 19 110 21 127 29 153 71 14 21 25 42 25
47 0 16 -64 39 -90 31 -33 -9 -120 -11 -120 -2 0 32 36 126 52 134 25 13 178
13 192 -1 25 -25 96 -3 96 30 0 30 -40 105 -64 120 -20 13 -161 24 -181 15z"/>
<path d="M2255 3000 c-33 -4 -95 -8 -138 -9 -75 -1 -107 -10 -134 -37 -22 -21
-15 -41 22 -64 19 -12 35 -25 35 -28 0 -7 -32 -124 -50 -187 -35 -122 -63
-202 -94 -275 -44 -103 -47 -146 -10 -160 34 -13 125 -13 179 1 39 10 46 16
59 53 8 22 17 79 20 126 8 116 12 130 45 130 24 0 28 -6 49 -77 34 -111 64
-174 108 -223 83 -91 163 -115 209 -62 33 36 31 45 -12 78 -68 51 -95 98 -117
204 -9 41 -18 85 -22 96 -4 17 2 26 29 43 46 28 95 84 118 135 39 86 13 183
-61 232 -45 30 -128 38 -235 24z m151 -177 c16 -61 -65 -122 -163 -123 -29 0
-53 3 -53 6 0 25 35 121 48 132 9 7 46 12 89 12 70 0 73 -1 79 -27z"/>
<path d="M1463 2960 c-123 -44 -209 -112 -233 -184 -18 -56 -3 -63 44 -18 60
58 113 88 192 107 57 14 78 15 112 6 119 -32 136 -159 41 -297 -38 -56 -85
-84 -140 -84 -60 1 -90 27 -96 84 -5 38 -2 48 20 70 30 30 87 35 108 10 12
-14 10 -19 -15 -39 -37 -30 -29 -55 16 -55 66 0 108 55 108 140 0 102 -83 139
-195 86 -111 -52 -154 -115 -155 -228 0 -74 9 -105 47 -160 30 -44 111 -88
163 -88 125 0 293 104 356 221 28 51 26 226 -3 290 -27 60 -77 115 -124 140
-51 26 -174 26 -246 -1z"/>
<path d="M905 2930 c-33 -4 -95 -8 -138 -9 -79 -1 -121 -14 -148 -47 -12 -15
-9 -20 24 -49 20 -18 37 -40 37 -49 0 -44 -100 -362 -151 -478 -35 -81 -37
-113 -7 -129 26 -14 100 -13 180 2 69 14 72 19 89 184 6 61 14 114 18 118 5 4
35 12 67 16 83 12 130 34 154 73 11 18 20 38 20 43 0 18 -59 37 -93 31 -18 -3
-51 -9 -75 -12 l-43 -7 7 39 c13 74 30 108 55 115 44 13 146 9 188 -6 38 -13
45 -13 67 1 13 9 24 22 24 29 0 29 -40 105 -64 121 -31 19 -124 26 -211 14z"/>
<path d="M1134 2491 c-28 -15 -72 -43 -98 -62 -26 -18 -62 -38 -79 -44 -50
-16 -46 -40 7 -54 146 -36 276 19 276 119 0 38 -20 70 -43 70 -7 0 -35 -13
-63 -29z"/>
<path d="M1340 2284 c-72 -61 -81 -184 -18 -251 12 -13 27 -23 33 -23 12 0 16
7 60 103 31 69 42 145 26 175 -16 31 -62 29 -101 -4z"/>
<path d="M1637 2303 c-4 -3 -7 -27 -7 -53 0 -68 44 -131 116 -165 98 -46 142
-19 87 53 -16 20 -35 50 -43 66 -26 51 -87 106 -118 106 -16 0 -32 -3 -35 -7z"/>
</g>
</svg>
